<?xml version="1.0" standalone="no"?>
<!DOCTYPE svg PUBLIC "-//W3C//DTD SVG 20010904//EN"
 "http://www.w3.org/TR/2001/REC-SVG-20010904/DTD/svg10.dtd">
<svg version="1.0" xmlns="http://www.w3.org/2000/svg"
 width="120.000000pt" height="118.000000pt" viewBox="0 0 120.000000 118.000000"
 preserveAspectRatio="xMidYMid meet">

<g transform="translate(0.000000,118.000000) scale(0.100000,-0.100000)"
fill="#000000" stroke="none">
<path d="M0 1085 c0 -52 4 -95 8 -95 5 0 17 9 26 19 25 27 152 89 219 106 47
12 142 15 502 15 l445 0 0 25 0 25 -600 0 -600 0 0 -95z"/>
<path d="M579 971 c-132 -70 -199 -112 -216 -132 -24 -30 -135 -240 -129 -246
2 -2 22 7 45 21 22 14 43 26 46 26 18 0 86 54 97 77 10 21 21 28 42 28 26 0
33 8 61 60 17 33 46 86 64 118 18 32 31 61 29 63 -3 2 -20 -5 -39 -15z"/>
<path d="M1051 504 c0 -11 3 -14 6 -6 3 7 2 16 -1 19 -3 4 -6 -2 -5 -13z"/>
<path d="M998 483 c7 -3 16 -2 19 1 4 3 -2 6 -13 5 -11 0 -14 -3 -6 -6z"/>
<path d="M1031 474 c0 -11 3 -14 6 -6 3 7 2 16 -1 19 -3 4 -6 -2 -5 -13z"/>
<path d="M968 463 c7 -3 16 -2 19 1 4 3 -2 6 -13 5 -11 0 -14 -3 -6 -6z"/>
<path d="M268 407 c-21 -11 -38 -28 -38 -37 0 -20 231 -250 251 -250 17 0 27
5 218 112 27 16 36 17 42 6 14 -21 10 -3 -6 28 -16 33 -85 104 -85 87 0 -24
-75 -143 -90 -143 -9 0 -63 50 -120 110 -58 61 -111 110 -120 109 -8 0 -32
-10 -52 -22z"/>
<path d="M832 395 c-7 -8 -9 -15 -4 -15 5 0 15 7 22 15 16 19 -1 19 -18 0z"/>
<path d="M951 314 c0 -11 3 -14 6 -6 3 7 2 16 -1 19 -3 4 -6 -2 -5 -13z"/>
<path d="M918 280 c-26 -24 -22 -35 4 -10 12 11 20 22 17 24 -2 2 -12 -4 -21
-14z"/>
<path d="M838 223 c7 -3 16 -2 19 1 4 3 -2 6 -13 5 -11 0 -14 -3 -6 -6z"/>
<path d="M720 209 c0 -5 5 -7 10 -4 6 3 10 8 10 11 0 2 -4 4 -10 4 -5 0 -10
-5 -10 -11z"/>
<path d="M711 172 c-1 -13 -5 -20 -11 -17 -5 3 -10 0 -10 -8 0 -12 4 -13 24
-4 14 7 21 14 17 17 -5 3 -11 12 -14 20 -3 10 -6 7 -6 -8z"/>
<path d="M0 60 l0 -60 118 1 c91 0 112 3 92 11 -60 25 -78 35 -136 70 -34 21
-64 38 -68 38 -3 0 -6 -27 -6 -60z"/>
</g>
</svg>
